<?xml version="1.0" encoding="UTF-8" standalone="no"?><!-- Generator: Gravit.io --><svg xmlns="http://www.w3.org/2000/svg" xmlns:xlink="http://www.w3.org/1999/xlink" style="isolation:isolate" viewBox="0 0 24 24" width="24pt" height="24pt"><defs><clipPath id="_clipPath_mFtMzzjHiBLJwBF2JkANI9A4X2ks9tWL"><rect width="24" height="24"/></clipPath></defs><g clip-path="url(#_clipPath_mFtMzzjHiBLJwBF2JkANI9A4X2ks9tWL)"><g/><path d=" M 13.044 16.667 L 12.584 18.507 L 12.584 18.507 L 7.639 18.507 L 7.639 14.483 C 4.823 12.754 2.931 9.646 2.931 6.093 L 2.931 4.809 L 2.931 4.809 L 5.927 4.809 L 5.927 6.093 C 5.927 9.946 9.352 13.37 13.418 13.37 C 13.487 13.37 13.632 13.37 13.632 13.37 C 14.233 13.37 14.992 13.45 15.784 13.608 L 13.611 15.781 L 13.611 15.781 L 13.607 15.778 Q 13.382 15.999 13.283 16.153 Q 13.184 16.308 13.04 16.661 L 13.044 16.667 Z  M 13.632 4.809 C 11.741 4.809 10.208 6.342 10.208 8.234 C 10.208 10.125 11.741 11.658 13.632 11.658 C 15.524 11.658 17.057 10.125 17.057 8.234 C 17.057 6.342 15.524 4.809 13.632 4.809 L 13.632 4.809 L 13.632 4.809 L 13.632 4.809 L 13.632 4.809 Z  M 20.321 14.292 L 20.605 14.008 C 21.224 13.388 21.224 12.38 20.605 11.76 C 19.985 11.14 18.976 11.14 18.357 11.76 L 18.073 12.044 L 20.321 14.292 Z  M 17.514 12.601 L 14.131 15.986 L 16.379 18.233 L 19.762 14.849 L 17.514 12.601 Z  M 13.663 19.18 L 15.699 18.671 L 13.693 16.665 L 13.184 18.701 C 13.151 18.835 13.19 18.978 13.288 19.076 C 13.386 19.174 13.528 19.213 13.663 19.18 Z " fill-rule="evenodd" fill="rgb(0,0,0)"/></g></svg>