<?xml version="1.0" encoding="UTF-8" standalone="no"?><!-- Generator: Gravit.io --><svg xmlns="http://www.w3.org/2000/svg" xmlns:xlink="http://www.w3.org/1999/xlink" style="isolation:isolate" viewBox="0 0 24 24" width="24pt" height="24pt"><defs><clipPath id="_clipPath_ijkTfjhaf9OcsqEozv8ncFaOtdAGr14t"><rect width="24" height="24"/></clipPath></defs><g clip-path="url(#_clipPath_ijkTfjhaf9OcsqEozv8ncFaOtdAGr14t)"><g/><path d=" M 12.806 17.302 L 12.28 19.406 L 12.28 19.406 L 7.015 19.439 L 7.015 14.839 C 3.795 12.862 1.632 9.309 1.632 5.248 L 1.632 3.779 L 1.632 3.779 L 5.058 3.779 L 5.058 5.248 C 5.058 9.652 8.973 13.567 13.621 13.567 C 13.7 13.567 13.866 13.567 13.866 13.567 C 14.553 13.567 15.07 13.578 15.938 13.806 L 13.455 16.289 L 13.455 16.289 L 13.449 16.286 Q 13.193 16.538 13.079 16.715 Q 12.966 16.892 12.802 17.295 L 12.806 17.302 Z  M 13.866 3.779 C 11.704 3.779 9.951 5.532 9.951 7.694 C 9.951 9.856 11.704 11.609 13.866 11.609 C 16.028 11.609 17.781 9.856 17.781 7.694 C 17.781 5.532 16.028 3.779 13.866 3.779 L 13.866 3.779 L 13.866 3.779 L 13.866 3.779 L 13.866 3.779 Z  M 21.512 14.62 L 21.837 14.295 C 22.545 13.587 22.545 12.434 21.837 11.726 C 21.128 11.017 19.975 11.017 19.267 11.726 L 18.942 12.051 L 21.512 14.62 Z  M 18.304 12.688 L 14.436 16.556 L 17.006 19.125 L 20.873 15.257 L 18.304 12.688 Z  M 13.901 20.207 L 16.229 19.626 L 13.936 17.333 L 13.354 19.66 C 13.315 19.814 13.36 19.977 13.472 20.089 C 13.584 20.201 13.747 20.245 13.901 20.207 Z " fill-rule="evenodd" fill="rgb(0,0,0)"/></g></svg>