<?xml version="1.0" encoding="UTF-8" standalone="no"?><!-- Generator: Gravit.io --><svg xmlns="http://www.w3.org/2000/svg" xmlns:xlink="http://www.w3.org/1999/xlink" style="isolation:isolate" viewBox="0 0 24 24" width="24pt" height="24pt"><defs><clipPath id="_clipPath_XSaLnKaiNNhZqzEJ5vIapJasSsuskOIU"><rect width="24" height="24"/></clipPath></defs><g clip-path="url(#_clipPath_XSaLnKaiNNhZqzEJ5vIapJasSsuskOIU)"><path d=" M 18.83 12.953 C 20.044 12.098 21.307 10.862 21.859 9.459 C 22.935 6.72 21.691 3.408 18.988 2.208 C 17.375 1.492 15.062 1.665 13.588 2.624 C 12.394 3.401 11.415 4.644 10.412 5.647 C 9.404 6.654 8.18 7.632 7.628 8.982 C 6.861 10.86 7.076 13.713 8.712 15.108 C 9.414 15.705 10.598 15.538 10.812 14.54 C 10.984 13.744 10.231 13.126 9.91 12.476 C 9.453 11.554 9.572 10.477 10.115 9.618 C 10.875 8.417 12.113 7.44 13.112 6.441 C 13.921 5.632 14.698 4.69 15.812 4.305 C 17.726 3.644 19.879 5.422 19.848 7.394 C 19.828 8.607 18.714 9.194 18.5 10.253 C 18.341 11.042 18.823 12.116 18.83 12.953 Z  M 5.17 11.047 C 3.957 11.902 2.693 13.138 2.141 14.541 C 1.065 17.28 2.309 20.592 5.012 21.792 C 6.625 22.508 8.938 22.335 10.412 21.376 C 11.606 20.599 12.585 19.356 13.588 18.353 C 14.596 17.346 15.82 16.368 16.372 15.018 C 17.139 13.14 16.924 10.287 15.288 8.892 C 14.586 8.295 13.402 8.462 13.188 9.46 C 13.016 10.256 13.769 10.874 14.09 11.524 C 14.547 12.446 14.428 13.523 13.885 14.382 C 13.125 15.583 11.887 16.56 10.888 17.559 C 10.079 18.368 9.302 19.31 8.188 19.695 C 6.274 20.356 4.121 18.578 4.152 16.606 C 4.172 15.393 5.286 14.806 5.5 13.747 C 5.659 12.958 5.177 11.884 5.17 11.047 Z " fill-rule="evenodd" fill="rgb(183,187,190)"/></g></svg>