<?xml version="1.0" encoding="UTF-8" standalone="no"?><!-- Generator: Gravit.io --><svg xmlns="http://www.w3.org/2000/svg" xmlns:xlink="http://www.w3.org/1999/xlink" style="isolation:isolate" viewBox="0 0 24 24" width="24pt" height="24pt"><defs><clipPath id="_clipPath_n1rjOhnbBdhAYV1FB6QZKfMuXdBsPZyS"><rect width="24" height="24"/></clipPath></defs><g clip-path="url(#_clipPath_n1rjOhnbBdhAYV1FB6QZKfMuXdBsPZyS)"><path d=" M 19.319 13.021 C 20.62 12.105 21.974 10.781 22.565 9.277 C 23.719 6.342 22.385 2.793 19.489 1.507 C 17.761 0.739 15.281 0.924 13.702 1.952 C 12.422 2.785 11.373 4.117 10.298 5.192 C 9.218 6.271 7.907 7.319 7.315 8.766 C 6.493 10.778 6.723 13.836 8.477 15.33 C 9.228 15.971 10.497 15.791 10.727 14.723 C 10.911 13.869 10.104 13.207 9.76 12.511 C 9.271 11.522 9.398 10.368 9.98 9.447 C 10.795 8.16 12.121 7.114 13.191 6.043 C 14.058 5.176 14.891 4.167 16.085 3.754 C 18.136 3.045 20.444 4.951 20.41 7.064 C 20.389 8.363 19.195 8.993 18.966 10.128 C 18.796 10.974 19.311 12.125 19.319 13.021 Z  M 4.681 10.979 C 3.38 11.895 2.026 13.219 1.435 14.723 C 0.281 17.658 1.615 21.207 4.511 22.493 C 6.239 23.261 8.719 23.076 10.298 22.048 C 11.578 21.215 12.627 19.883 13.702 18.808 C 14.782 17.729 16.093 16.681 16.685 15.234 C 17.507 13.222 17.277 10.164 15.523 8.67 C 14.772 8.029 13.503 8.209 13.273 9.277 C 13.089 10.131 13.896 10.793 14.24 11.489 C 14.729 12.478 14.602 13.632 14.02 14.553 C 13.205 15.84 11.879 16.886 10.809 17.957 C 9.942 18.824 9.109 19.833 7.915 20.246 C 5.864 20.955 3.556 19.049 3.59 16.936 C 3.611 15.637 4.805 15.007 5.034 13.872 C 5.204 13.026 4.689 11.875 4.681 10.979 Z " fill-rule="evenodd" fill="rgb(183,187,190)"/></g></svg>