<?xml version="1.0" encoding="UTF-8" standalone="no"?><!-- Generator: Gravit.io --><svg xmlns="http://www.w3.org/2000/svg" xmlns:xlink="http://www.w3.org/1999/xlink" style="isolation:isolate" viewBox="0 0 24 24" width="24pt" height="24pt"><defs><clipPath id="_clipPath_KC90C8UPCL1CTgFTdj0uSFNhpIneJl75"><rect width="24" height="24"/></clipPath></defs><g clip-path="url(#_clipPath_KC90C8UPCL1CTgFTdj0uSFNhpIneJl75)"><path d=" M 18.207 12.866 C 19.311 12.089 20.459 10.966 20.96 9.69 C 21.939 7.201 20.808 4.191 18.352 3.1 C 16.886 2.449 14.783 2.606 13.444 3.478 C 12.358 4.185 11.468 5.314 10.556 6.226 C 9.641 7.141 8.528 8.03 8.027 9.257 C 7.329 10.964 7.525 13.557 9.012 14.824 C 9.649 15.368 10.726 15.215 10.921 14.309 C 11.076 13.585 10.392 13.024 10.1 12.433 C 9.685 11.595 9.793 10.615 10.287 9.835 C 10.978 8.743 12.102 7.856 13.01 6.948 C 13.746 6.212 14.452 5.356 15.464 5.006 C 17.204 4.405 19.161 6.021 19.133 7.814 C 19.115 8.916 18.102 9.45 17.908 10.412 C 17.764 11.129 18.201 12.106 18.207 12.866 Z  M 5.793 11.134 C 4.689 11.911 3.541 13.034 3.04 14.31 C 2.061 16.799 3.192 19.809 5.648 20.9 C 7.114 21.551 9.217 21.394 10.556 20.522 C 11.642 19.815 12.532 18.686 13.444 17.774 C 14.359 16.859 15.472 15.97 15.973 14.743 C 16.671 13.036 16.475 10.443 14.988 9.176 C 14.351 8.632 13.274 8.785 13.079 9.691 C 12.924 10.415 13.608 10.976 13.9 11.567 C 14.315 12.405 14.207 13.385 13.713 14.165 C 13.022 15.257 11.898 16.144 10.99 17.052 C 10.254 17.788 9.548 18.644 8.536 18.994 C 6.796 19.595 4.839 17.979 4.868 16.186 C 4.885 15.084 5.898 14.55 6.092 13.588 C 6.236 12.871 5.799 11.894 5.793 11.134 Z " fill-rule="evenodd" fill="rgb(183,187,190)"/></g></svg>