<?xml version="1.0" encoding="UTF-8" standalone="no"?><!-- Generator: Gravit.io --><svg xmlns="http://www.w3.org/2000/svg" xmlns:xlink="http://www.w3.org/1999/xlink" style="isolation:isolate" viewBox="0 0 24 24" width="24pt" height="24pt"><defs><clipPath id="_clipPath_3SqqHtCZCm7fdaKONmcGiMUkk4v750Nn"><rect width="24" height="24"/></clipPath></defs><g clip-path="url(#_clipPath_3SqqHtCZCm7fdaKONmcGiMUkk4v750Nn)"><g><g><g><path d=" M 20.835 11.512 L 19.37 11.512 L 19.37 7.607 C 19.37 6.533 18.492 5.655 17.418 5.655 L 13.513 5.655 L 13.513 4.19 C 13.513 2.824 12.439 1.75 11.073 1.75 C 9.706 1.75 8.632 2.824 8.632 4.19 L 8.632 5.655 L 4.727 5.655 C 3.654 5.655 2.775 6.533 2.775 7.607 L 2.775 11.317 L 4.239 11.317 C 5.704 11.317 6.875 12.488 6.875 13.952 C 6.875 15.417 5.704 16.588 4.239 16.588 L 2.775 16.588 L 2.775 20.298 C 2.775 21.371 3.654 22.25 4.727 22.25 L 8.437 22.25 L 8.437 20.786 C 8.437 19.321 9.608 18.15 11.073 18.15 C 12.537 18.15 13.708 19.321 13.708 20.786 L 13.708 22.25 L 17.418 22.25 C 18.492 22.25 19.37 21.371 19.37 20.298 L 19.37 16.393 L 20.835 16.393 C 22.201 16.393 23.275 15.319 23.275 13.952 C 23.275 12.586 22.201 11.512 20.835 11.512 Z " fill="rgb(0,0,0)"/></g></g></g><g clip-path="url(#_clipPath_2ENj8z2if78Tc9Gy7PZnO3TXytxyck9u)"><text transform="matrix(1,0,0,1,-9,41.377)" style="font-family:'Open Sans';font-weight:400;font-size:20px;font-style:normal;fill:#000000;stroke:none;">Your </text><text transform="matrix(1,0,0,1,-9,68.613)" style="font-family:'Open Sans';font-weight:400;font-size:20px;font-style:normal;fill:#000000;stroke:none;">text </text><text transform="matrix(1,0,0,1,-9,95.85)" style="font-family:'Open Sans';font-weight:400;font-size:20px;font-style:normal;fill:#000000;stroke:none;">here</text></g><defs><clipPath id="_clipPath_2ENj8z2if78Tc9Gy7PZnO3TXytxyck9u"><rect x="0" y="0" width="9" height="81.709" transform="matrix(1,0,0,1,-9,20)"/></clipPath></defs></g></svg>